<mxfile host="app.diagrams.net" modified="2023-11-21T09:17:44.760Z" agent="Mozilla/5.0 (Macintosh; Intel Mac OS X 10_15_7) AppleWebKit/537.36 (KHTML, like Gecko) Chrome/119.0.0.0 Safari/537.36" etag="7FdO9oowLeeg5scjXnEn" version="22.1.3" type="github">
  <diagram name="第 1 页" id="WRQ-3XJAXvZbZma2N-Af">
    <mxGraphModel dx="940" dy="490" grid="0" gridSize="10" guides="1" tooltips="1" connect="1" arrows="1" fold="1" page="1" pageScale="1" pageWidth="827" pageHeight="1169" math="0" shadow="0">
      <root>
        <mxCell id="0" />
        <mxCell id="1" parent="0" />
        <mxCell id="JuZ-DjB_Eq1HKvpgmzkp-7" style="edgeStyle=orthogonalEdgeStyle;rounded=0;orthogonalLoop=1;jettySize=auto;html=1;entryX=0.5;entryY=0;entryDx=0;entryDy=0;" edge="1" parent="1" source="JuZ-DjB_Eq1HKvpgmzkp-2" target="JuZ-DjB_Eq1HKvpgmzkp-3">
          <mxGeometry relative="1" as="geometry" />
        </mxCell>
        <mxCell id="JuZ-DjB_Eq1HKvpgmzkp-2" value="B端web请求" style="rounded=1;whiteSpace=wrap;html=1;" vertex="1" parent="1">
          <mxGeometry x="130" y="40" width="120" height="60" as="geometry" />
        </mxCell>
        <mxCell id="JuZ-DjB_Eq1HKvpgmzkp-8" style="edgeStyle=orthogonalEdgeStyle;rounded=0;orthogonalLoop=1;jettySize=auto;html=1;entryX=0.5;entryY=0;entryDx=0;entryDy=0;" edge="1" parent="1" source="JuZ-DjB_Eq1HKvpgmzkp-3" target="JuZ-DjB_Eq1HKvpgmzkp-4">
          <mxGeometry relative="1" as="geometry" />
        </mxCell>
        <mxCell id="JuZ-DjB_Eq1HKvpgmzkp-3" value="nginx" style="rounded=1;whiteSpace=wrap;html=1;" vertex="1" parent="1">
          <mxGeometry x="130" y="140" width="120" height="60" as="geometry" />
        </mxCell>
        <mxCell id="JuZ-DjB_Eq1HKvpgmzkp-4" value="php鉴权" style="rounded=1;whiteSpace=wrap;html=1;" vertex="1" parent="1">
          <mxGeometry x="130" y="270" width="120" height="60" as="geometry" />
        </mxCell>
        <mxCell id="JuZ-DjB_Eq1HKvpgmzkp-9" style="edgeStyle=orthogonalEdgeStyle;rounded=0;orthogonalLoop=1;jettySize=auto;html=1;entryX=0;entryY=0.5;entryDx=0;entryDy=0;" edge="1" parent="1" source="JuZ-DjB_Eq1HKvpgmzkp-5" target="JuZ-DjB_Eq1HKvpgmzkp-6">
          <mxGeometry relative="1" as="geometry" />
        </mxCell>
        <mxCell id="JuZ-DjB_Eq1HKvpgmzkp-11" value="http" style="edgeLabel;html=1;align=center;verticalAlign=middle;resizable=0;points=[];" vertex="1" connectable="0" parent="JuZ-DjB_Eq1HKvpgmzkp-9">
          <mxGeometry x="-0.2286" y="-1" relative="1" as="geometry">
            <mxPoint as="offset" />
          </mxGeometry>
        </mxCell>
        <mxCell id="JuZ-DjB_Eq1HKvpgmzkp-5" value="php网关服务" style="rounded=1;whiteSpace=wrap;html=1;fillColor=#ffe6cc;strokeColor=#d79b00;" vertex="1" parent="1">
          <mxGeometry x="190" y="330" width="60" height="60" as="geometry" />
        </mxCell>
        <mxCell id="JuZ-DjB_Eq1HKvpgmzkp-6" value="java服务接口" style="rounded=1;whiteSpace=wrap;html=1;fillColor=#ffe6cc;strokeColor=#d79b00;" vertex="1" parent="1">
          <mxGeometry x="390" y="430" width="120" height="60" as="geometry" />
        </mxCell>
        <mxCell id="JuZ-DjB_Eq1HKvpgmzkp-18" style="edgeStyle=orthogonalEdgeStyle;rounded=0;orthogonalLoop=1;jettySize=auto;html=1;entryX=0.5;entryY=0;entryDx=0;entryDy=0;" edge="1" parent="1" source="JuZ-DjB_Eq1HKvpgmzkp-10" target="JuZ-DjB_Eq1HKvpgmzkp-17">
          <mxGeometry relative="1" as="geometry" />
        </mxCell>
        <mxCell id="JuZ-DjB_Eq1HKvpgmzkp-10" value="正常业务" style="rounded=1;whiteSpace=wrap;html=1;" vertex="1" parent="1">
          <mxGeometry x="130" y="330" width="60" height="60" as="geometry" />
        </mxCell>
        <mxCell id="JuZ-DjB_Eq1HKvpgmzkp-14" style="edgeStyle=orthogonalEdgeStyle;rounded=0;orthogonalLoop=1;jettySize=auto;html=1;" edge="1" parent="1" source="JuZ-DjB_Eq1HKvpgmzkp-12" target="JuZ-DjB_Eq1HKvpgmzkp-13">
          <mxGeometry relative="1" as="geometry" />
        </mxCell>
        <mxCell id="JuZ-DjB_Eq1HKvpgmzkp-12" value="C端web请求" style="rounded=1;whiteSpace=wrap;html=1;" vertex="1" parent="1">
          <mxGeometry x="390" y="40" width="120" height="60" as="geometry" />
        </mxCell>
        <mxCell id="JuZ-DjB_Eq1HKvpgmzkp-19" style="edgeStyle=orthogonalEdgeStyle;rounded=0;orthogonalLoop=1;jettySize=auto;html=1;entryX=0.5;entryY=0;entryDx=0;entryDy=0;" edge="1" parent="1" source="JuZ-DjB_Eq1HKvpgmzkp-13" target="JuZ-DjB_Eq1HKvpgmzkp-15">
          <mxGeometry relative="1" as="geometry" />
        </mxCell>
        <mxCell id="JuZ-DjB_Eq1HKvpgmzkp-13" value="nginx" style="rounded=1;whiteSpace=wrap;html=1;" vertex="1" parent="1">
          <mxGeometry x="390" y="140" width="120" height="60" as="geometry" />
        </mxCell>
        <mxCell id="JuZ-DjB_Eq1HKvpgmzkp-16" style="edgeStyle=orthogonalEdgeStyle;rounded=0;orthogonalLoop=1;jettySize=auto;html=1;entryX=0.5;entryY=0;entryDx=0;entryDy=0;" edge="1" parent="1" source="JuZ-DjB_Eq1HKvpgmzkp-15" target="JuZ-DjB_Eq1HKvpgmzkp-6">
          <mxGeometry relative="1" as="geometry" />
        </mxCell>
        <mxCell id="JuZ-DjB_Eq1HKvpgmzkp-15" value="java鉴权&lt;br&gt;（重写php逻辑）&lt;br&gt;ls_session表" style="rounded=1;whiteSpace=wrap;html=1;" vertex="1" parent="1">
          <mxGeometry x="390" y="270" width="120" height="60" as="geometry" />
        </mxCell>
        <mxCell id="JuZ-DjB_Eq1HKvpgmzkp-17" value="php业务" style="rounded=1;whiteSpace=wrap;html=1;" vertex="1" parent="1">
          <mxGeometry x="120" y="430" width="120" height="60" as="geometry" />
        </mxCell>
      </root>
    </mxGraphModel>
  </diagram>
</mxfile>
